<?xml version="1.0" encoding="iso-8859-1"?>
<!-- Generator: Adobe Illustrator 19.0.0, SVG Export Plug-In . SVG Version: 6.00 Build 0)  -->
<svg version="1.1" id="Capa_1" xmlns="http://www.w3.org/2000/svg" xmlns:xlink="http://www.w3.org/1999/xlink" x="0px" y="0px"
	 viewBox="0 0 490 490" style="enable-background:new 0 0 490 490;" xml:space="preserve">
<g>
	<path d="M45.932,469.348h398.136c25.328,0,45.932-20.603,45.932-45.932V146.965c0-25.328-20.603-45.932-45.932-45.932h-88.425
		V66.584c0-25.328-20.603-45.932-45.932-45.932H180.289c-25.328,0-45.932,20.604-45.932,45.932v34.449H45.932
		C20.604,101.033,0,121.636,0,146.965v276.451C0,448.745,20.604,469.348,45.932,469.348z M444.068,438.727H45.932
		c-8.448,0-15.311-6.863-15.311-15.31V249.25h58.94v29.343h30.621V249.25h249.635v29.343h30.621V249.25h58.94v174.166
		C459.379,431.864,452.516,438.727,444.068,438.727z M164.978,66.584c0-8.44,6.863-15.311,15.311-15.311h129.423
		c8.448,0,15.311,6.87,15.311,15.311v34.449H164.978V66.584z M45.932,131.654h398.136c8.448,0,15.311,6.87,15.311,15.311v71.664
		h-58.94v-29.335h-30.621v29.335H120.183v-29.335H89.561v29.335h-58.94v-71.664C30.621,138.525,37.484,131.654,45.932,131.654z"/>
</g>
<g>
</g>
<g>
</g>
<g>
</g>
<g>
</g>
<g>
</g>
<g>
</g>
<g>
</g>
<g>
</g>
<g>
</g>
<g>
</g>
<g>
</g>
<g>
</g>
<g>
</g>
<g>
</g>
<g>
</g>
</svg>
